<svg width="250" height="61" viewBox="0 0 250 61" fill="none" xmlns="http://www.w3.org/2000/svg">
<path fill-rule="evenodd" clip-rule="evenodd" d="M96.1073 51.9273C96.157 54.8928 96.0575 57.8552 95.762 60.6202H104.355C105.195 48.3738 102.43 32.075 100.799 25.9014H94.3298C89.4406 32.075 78.031 48.3738 72.3518 60.6202H81.0929C82.2779 57.8552 83.7599 54.8928 85.3399 51.9273H96.1073ZM87.4159 48.0256C91.3176 41.2624 94.972 35.7295 94.972 35.7295C94.972 35.7295 95.7138 41.2624 95.9595 48.0256H87.4159ZM132.456 60.6187H137.939L147.075 25.9014H139.323L133.89 46.4441L123.962 25.9014H118.48L109.293 60.6187H116.998L122.481 40.1257L132.456 60.6187ZM165.991 51.9273C166.088 54.8928 165.941 57.8552 165.694 60.6202H174.239C175.028 48.3738 172.263 32.075 170.683 25.9014H164.214C159.373 32.075 147.966 48.3738 142.285 60.6202H150.978C152.162 57.8552 153.694 54.8928 155.275 51.9273H165.991ZM157.3 48.0256C161.201 41.2624 164.906 35.7295 164.906 35.7295C164.906 35.7295 165.595 41.2624 165.892 48.0256H157.3ZM189.35 60.6187L197.549 29.7518H206.241L207.23 25.9014H181.401L180.411 29.7518H189.154L181.054 60.6187H189.35ZM211.824 56.818L214.983 44.8159H225.106L226.146 40.9142H216.07L218.985 29.7518H230.837L231.823 25.9014H211.627L202.486 60.6187H223.231L224.217 56.818H211.824ZM237.898 56.818L245.999 25.9014H237.701L228.516 60.6187H249.011L250 56.818H237.898Z" fill="white"/>
<path fill-rule="evenodd" clip-rule="evenodd" d="M17.532 25.5049C27.2109 25.5049 35.1138 33.4078 35.1138 43.0867C35.1138 52.7655 27.2109 60.6187 17.532 60.6187C7.85165 60.6187 0 52.7655 0 43.0867C0 33.4078 7.85165 25.5049 17.532 25.5049Z" fill="white"/>
<path fill-rule="evenodd" clip-rule="evenodd" d="M67.413 60.4724C77.4386 37.0125 75.2164 13.6038 60.6483 4.12087C46.819 -4.86752 26.0275 1.3559 9.18591 17.8507C20.199 9.3553 32.6941 7.03358 40.3483 13.2088C50.0784 21.0107 47.9542 39.7307 35.6068 54.9892C33.9972 56.9419 32.2825 58.8056 30.4704 60.5719L67.413 60.4724Z" fill="white"/>
</svg>
