<svg id="Camada_1" data-name="Camada 1" xmlns="http://www.w3.org/2000/svg" viewBox="0 0 200 80"><path d="M10.87,33.82a9,9,0,0,1,7.21,3.48v-3h5V56.83H19.66a1.6,1.6,0,0,1-1.6-1.58h0V53.81a9,9,0,0,1-7.22,3.46C4.7,57.27,0,52,0,45.54S4.7,33.82,10.87,33.82m.91,4.51c-4,0-6.72,3.15-6.72,7.21s2.71,7.22,6.72,7.22,6.72-3.15,6.72-7.22-2.71-7.21-6.72-7.21"/><path d="M28.67,34.26h4.95v3.07a7.81,7.81,0,0,1,6.86-3.51c5.23,0,8.6,3.71,8.6,9.43V56.83H45.71a1.61,1.61,0,0,1-1.61-1.61V44.05c0-3.57-1.79-5.72-4.7-5.72-3.29,0-5.8,2.57-5.8,7.38V56.8H30.22a1.61,1.61,0,0,1-1.6-1.61V34.26Z"/><path d="M63.87,33.82a9,9,0,0,1,7.22,3.48V23h5V56.83H72.67a1.61,1.61,0,0,1-1.61-1.61V53.78a9,9,0,0,1-7.21,3.46C57.68,57.24,53,52,53,45.52s4.73-11.7,10.89-11.7m.92,4.51c-4,0-6.72,3.15-6.72,7.21s2.71,7.22,6.72,7.22,6.72-3.15,6.72-7.22-2.71-7.21-6.72-7.21"/><path d="M81.68,34.26h4.95v4a6.33,6.33,0,0,1,6-4.23,11.44,11.44,0,0,1,1.93.17v5.11A7.74,7.74,0,0,0,92,38.91c-2.85,0-5.42,2.38-5.42,6.91v11H83.26a1.61,1.61,0,0,1-1.61-1.61h0v-21Z"/><path d="M107.89,57.27A11.73,11.73,0,1,1,119.7,45.54a11.64,11.64,0,0,1-11.81,11.73m0-4.59c4,0,6.78-3.13,6.78-7.14s-2.79-7.13-6.78-7.13-6.8,3.1-6.8,7.13,2.79,7.14,6.8,7.14"/><path d="M126.2,29.37a3.32,3.32,0,1,1,3.32-3.32,3.32,3.32,0,0,1-3.32,3.32m-2.49,4.89h5V56.8h-3.35a1.61,1.61,0,0,1-1.6-1.61V34.26Z"/><path d="M143.62,33.82a9,9,0,0,1,7.22,3.48V23h4.95V56.83h-3.38a1.62,1.62,0,0,1-1.6-1.58h0V53.81a9,9,0,0,1-7.22,3.46c-6.16,0-10.86-5.28-10.86-11.73s4.72-11.72,10.89-11.72m.91,4.51c-4,0-6.72,3.15-6.72,7.21s2.71,7.22,6.72,7.22,6.72-3.15,6.72-7.22-2.71-7.21-6.72-7.21"/><path d="M164.44,37.14h-4.87v-3h4.87v-6.3h3.18v6.3h6.61v3h-6.64v13.1c0,2.77,1.22,3.85,3.76,3.85a8.38,8.38,0,0,0,2.85-.5v2.85a8.75,8.75,0,0,1-3.34.58c-3.85,0-6.45-2.21-6.45-6.53l0-13.35Z"/><polygon points="200 34.15 189.41 56.83 186.92 56.83 176.3 34.15 179.84 34.15 188.14 52.15 196.43 34.15 200 34.15"/></svg>