<svg id="Camada_1" data-name="Camada 1" xmlns="http://www.w3.org/2000/svg" viewBox="0 0 200 80"><g id="Page-1"><g id="Artboard-1"><g id="App-Store"><g id="icon"><path id="Fill-2" d="M31.69,38.14a10.61,10.61,0,0,1,5.05-8.9,11,11,0,0,0-8.56-4.63c-3.59-.38-7.08,2.16-8.91,2.16s-4.7-2.11-7.73-2.06A11.35,11.35,0,0,0,2,30.56c-4.13,7.17-1,17.71,2.92,23.51,2,2.84,4.3,6,7.35,5.9s4.09-1.89,7.66-1.89,4.6,1.89,7.7,1.83,5.19-2.85,7.12-5.72A23.53,23.53,0,0,0,38,47.56a10.26,10.26,0,0,1-6.27-9.42"/><path id="Fill-3" d="M25.84,20.8a10.42,10.42,0,0,0,2.39-7.48,10.64,10.64,0,0,0-6.87,3.56,10,10,0,0,0-2.45,7.2,8.76,8.76,0,0,0,6.93-3.28"/></g><path id="Fill-4" d="M74.74,59.56H70.59l-2.28-7.15H60.4l-2.16,7.15h-4L62,35.22h4.85l7.86,24.34Zm-7.1-10.15-2.06-6.34c-.22-.66-.63-2.18-1.22-4.59h-.09c-.24,1-.62,2.57-1.15,4.59l-2,6.34Z"/><path id="Fill-5" d="M94.86,50.58a9.9,9.9,0,0,1-2.44,7.07A7.1,7.1,0,0,1,87,60a5.41,5.41,0,0,1-5-2.49v9.21H78.1V47.78c0-1.88,0-3.79-.15-5.77h3.43l.21,2.79h.07a6.92,6.92,0,0,1,11.09-.7,9.54,9.54,0,0,1,2.11,6.48Zm-4,.13a7.22,7.22,0,0,0-1.15-4.22,4,4,0,0,0-3.4-1.73,4.11,4.11,0,0,0-2.62,1,4.44,4.44,0,0,0-1.53,2.5A5.13,5.13,0,0,0,82,49.41v2.93a4.68,4.68,0,0,0,1.17,3.23,3.85,3.85,0,0,0,3,1.32,4,4,0,0,0,3.43-1.7,7.39,7.39,0,0,0,1.24-4.48Z"/><path id="Fill-6" d="M115,50.58a9.9,9.9,0,0,1-2.44,7.07,7.1,7.1,0,0,1-5.4,2.31,5.41,5.41,0,0,1-5-2.49v9.21H98.27V47.78c0-1.88,0-3.79-.15-5.77h3.43l.22,2.79h.06a6.92,6.92,0,0,1,11.09-.7A9.54,9.54,0,0,1,115,50.58Zm-4,.13a7.22,7.22,0,0,0-1.15-4.22,4,4,0,0,0-3.4-1.73,4.13,4.13,0,0,0-2.62,1,4.55,4.55,0,0,0-1.53,2.5,5.13,5.13,0,0,0-.18,1.19v2.93a4.68,4.68,0,0,0,1.17,3.23,3.86,3.86,0,0,0,3.05,1.32,4,4,0,0,0,3.42-1.7,7.32,7.32,0,0,0,1.24-4.48Z"/><path id="Fill-7" d="M137.61,52.74a6.52,6.52,0,0,1-2.16,5.06,9.57,9.57,0,0,1-6.63,2.12,11.62,11.62,0,0,1-6.29-1.51l.91-3.25a10.88,10.88,0,0,0,5.63,1.52,5.31,5.31,0,0,0,3.43-1A3.24,3.24,0,0,0,133.74,53a3.43,3.43,0,0,0-1-2.49,9.47,9.47,0,0,0-3.36-1.88c-4.3-1.6-6.43-3.92-6.43-7a6.17,6.17,0,0,1,2.26-4.91,9,9,0,0,1,6-1.92A11.66,11.66,0,0,1,136.7,36l-1,3.16A9.72,9.72,0,0,0,131,38.07a4.88,4.88,0,0,0-3.23,1,2.93,2.93,0,0,0-1,2.21A3,3,0,0,0,128,43.66a12.59,12.59,0,0,0,3.54,1.88,11.93,11.93,0,0,1,4.62,3,6.21,6.21,0,0,1,1.5,4.24"/><path id="Fill-8" d="M150.53,44.94h-4.3v8.52c0,2.16.76,3.25,2.27,3.25a7.53,7.53,0,0,0,1.73-.18l.12,3a9.11,9.11,0,0,1-3,.42,4.65,4.65,0,0,1-3.6-1.41c-.88-.94-1.31-2.52-1.31-4.73V44.93h-2.55V42h2.55V38.8l3.83-1.16V42h4.3v2.93"/><path id="Fill-9" d="M169.88,50.65a9.65,9.65,0,0,1-2.31,6.64A8.27,8.27,0,0,1,161.14,60,7.89,7.89,0,0,1,155,57.4a9.27,9.27,0,0,1-2.29-6.46A9.58,9.58,0,0,1,155,44.27a8.25,8.25,0,0,1,6.38-2.61,8,8,0,0,1,6.21,2.58,9.15,9.15,0,0,1,2.25,6.41Zm-4,.08a7.9,7.9,0,0,0-1-4.14,3.85,3.85,0,0,0-3.51-2.09,3.9,3.9,0,0,0-3.58,2.09,7.91,7.91,0,0,0-1,4.22,7.85,7.85,0,0,0,1,4.14,4,4,0,0,0,7.06,0A8,8,0,0,0,165.84,50.73Z"/><path id="Fill-10" d="M182.56,45.44a6.73,6.73,0,0,0-1.23-.1,3.67,3.67,0,0,0-3.18,1.55,5.87,5.87,0,0,0-1,3.46v9.21h-3.91v-12c0-2,0-3.87-.12-5.52h3.4l.15,3.36h.11a6,6,0,0,1,1.95-2.78,4.71,4.71,0,0,1,2.82-.94,9,9,0,0,1,1,.06v3.73"/><path id="Fill-11" d="M200,50a8.85,8.85,0,0,1-.15,1.77h-11.7a5.09,5.09,0,0,0,1.7,4,5.83,5.83,0,0,0,3.82,1.22,13,13,0,0,0,4.73-.83l.61,2.71a14.7,14.7,0,0,1-5.88,1.08,8.51,8.51,0,0,1-6.41-2.4A8.89,8.89,0,0,1,184.39,51a10.06,10.06,0,0,1,2.18-6.6,7.47,7.47,0,0,1,6.13-2.82,6.5,6.5,0,0,1,5.73,2.82A9.49,9.49,0,0,1,200,50Zm-3.72-1a5.32,5.32,0,0,0-.76-3,3.41,3.41,0,0,0-3.1-1.63,3.69,3.69,0,0,0-3.1,1.58,5.83,5.83,0,0,0-1.15,3l8.11,0Z"/><g id="Available-on-the"><path id="Fill-12" d="M65.76,26.52H63.71L62.59,23H58.7l-1.07,3.51h-2l3.84-12h2.37Zm-3.51-5-1-3.13c-.1-.32-.29-1.08-.61-2.26h0c-.13.51-.3,1.25-.58,2.26l-1,3.13Z"/><path id="Fill-13" d="M75.38,17.88l-3.26,8.64H70.26l-3.17-8.64h2.06l1.47,4.57c.25.76.46,1.48.63,2.17h0c.15-.62.37-1.35.63-2.17l1.45-4.57h2"/><path id="Fill-14" d="M82.34,26.52l-.15-1h0a3,3,0,0,1-2.52,1.19A2.51,2.51,0,0,1,77,24.18C77,22.05,78.83,21,82,21v-.17c0-1.13-.61-1.69-1.79-1.69a4,4,0,0,0-2.26.64l-.4-1.25a5.5,5.5,0,0,1,3-.74c2.26,0,3.39,1.18,3.39,3.57v3.18a11.21,11.21,0,0,0,.14,2.06l-1.73,0Zm-.27-4.3c-2.12,0-3.19.51-3.19,1.75a1.22,1.22,0,0,0,1.31,1.35,1.83,1.83,0,0,0,1.88-1.77Z"/><path id="Fill-15" d="M88.2,16.47a1.15,1.15,0,1,1,1.21-1.16,1.12,1.12,0,0,1-1.21,1.16Zm-.92,1.41h1.91V26.5H87.28Z"/><path id="Fill-16" d="M92.6,13.93h1.91V26.5H92.6Z"/><path id="Fill-17" d="M102.66,26.52l-.15-1h-.05a3,3,0,0,1-2.52,1.19,2.51,2.51,0,0,1-2.64-2.54c0-2.13,1.84-3.23,5-3.23v-.17c0-1.13-.61-1.69-1.79-1.69a4,4,0,0,0-2.26.64l-.4-1.27a5.59,5.59,0,0,1,3-.74q3.39,0,3.39,3.58v3.18a13.87,13.87,0,0,0,.12,2.06h-1.71v0Zm-.27-4.3c-2.12,0-3.2.51-3.2,1.75a1.23,1.23,0,0,0,1.32,1.35,1.83,1.83,0,0,0,1.88-1.77Z"/><path id="Fill-18" d="M112,26.72a2.94,2.94,0,0,1-2.72-1.54h0l-.12,1.34h-1.63c0-.69.07-1.47.07-2.32V13.93h1.93v5.22h0a3,3,0,0,1,2.75-1.43c2.08,0,3.53,1.78,3.53,4.37S114.22,26.72,112,26.72Zm-.39-7.5a2.2,2.2,0,0,0-2.11,2.29V23a2.1,2.1,0,0,0,2.07,2.15c1.44,0,2.29-1.17,2.29-3S113,19.22,111.64,19.22Z"/><path id="Fill-19" d="M118.67,13.93h1.91V26.5h-1.91Z"/><path id="Fill-20" d="M131,22.66h-5.75A2.48,2.48,0,0,0,128,25.22a6.58,6.58,0,0,0,2.33-.41l.29,1.33a7,7,0,0,1-2.88.53,4,4,0,0,1-4.3-4.35c0-2.64,1.63-4.63,4.09-4.63,2.19,0,3.59,1.63,3.59,4.1a3.58,3.58,0,0,1-.08.87Zm-1.75-1.36c0-1.34-.68-2.28-1.9-2.28a2.28,2.28,0,0,0-2.09,2.28Z"/><path id="Fill-21" d="M142.63,26.72a4.1,4.1,0,0,1-4.15-4.44c0-2.67,1.67-4.56,4.3-4.56a4.08,4.08,0,0,1,4.16,4.42A4.24,4.24,0,0,1,142.63,26.72Zm.09-7.6c-1.39,0-2.28,1.3-2.28,3.1s.91,3.06,2.26,3.06S145,23.9,145,22.17s-.89-3.05-2.24-3.05Z"/><path id="Fill-22" d="M157.24,26.52h-1.92v-5c0-1.53-.59-2.29-1.74-2.29a2,2,0,0,0-1.91,2.11V26.5h-1.92V20.36c0-.76,0-1.59-.06-2.48h1.68l.08,1.34h.05a3.12,3.12,0,0,1,2.74-1.52c1.81,0,3,1.39,3,3.65v5.17"/><path id="Fill-23" d="M169.78,19.33h-2.11v4.19c0,1.07.38,1.6,1.12,1.6a4.09,4.09,0,0,0,.85-.08l.05,1.45a4.07,4.07,0,0,1-1.48.21c-1.52,0-2.41-.84-2.41-3V19.33h-1.25V17.9h1.25V16.32l1.88-.58v2.14h2.11v1.45"/><path id="Fill-24" d="M179.93,26.52H178V21.59c0-1.55-.6-2.32-1.75-2.32a1.87,1.87,0,0,0-1.91,2V26.5h-1.91V13.93h1.91V19.1h0A2.9,2.9,0,0,1,177,17.7c1.83,0,3,1.42,3,3.68v5.14"/><path id="Fill-25" d="M189.72,22.66H184a2.48,2.48,0,0,0,2.71,2.56,6.58,6.58,0,0,0,2.33-.41l.29,1.33a7,7,0,0,1-2.88.53,4,4,0,0,1-4.3-4.35c0-2.64,1.63-4.63,4.09-4.63,2.19,0,3.59,1.63,3.59,4.1A3.58,3.58,0,0,1,189.72,22.66ZM188,21.3c0-1.34-.68-2.28-1.9-2.28A2.27,2.27,0,0,0,184,21.3Z"/></g></g></g></g></svg>