<svg width="29" height="28" viewBox="0 0 29 28" fill="none" xmlns="http://www.w3.org/2000/svg">
<circle cx="14.5601" cy="14" r="13.5" stroke="white"/>
<path d="M21.8401 14.3225C21.8401 10.4328 18.7064 7.28 14.8401 7.28C10.9738 7.28 7.84009 10.4328 7.84009 14.3225C7.84009 17.8383 10.3993 20.7517 13.7462 21.28V16.3585H11.9692V14.322H13.7462V12.7708C13.7462 11.0059 14.7911 10.0305 16.3904 10.0305C17.1557 10.0305 17.9574 10.1682 17.9574 10.1682V11.9014H17.074C16.2046 11.9014 15.934 12.4446 15.934 13.0018V14.3225H17.8753L17.565 16.3581H15.934V21.28C19.2809 20.7517 21.8401 17.8383 21.8401 14.3225Z" fill="white"/>
<circle cx="8.1201" cy="10.92" r="2.52" fill="#FF4F26"/>
</svg>
