<svg id="Camada_1" data-name="Camada 1" xmlns="http://www.w3.org/2000/svg" xmlns:xlink="http://www.w3.org/1999/xlink" viewBox="0 0 200 80"><defs><style>.cls-1,.cls-2,.cls-3,.cls-4,.cls-5,.cls-6,.cls-7,.cls-8{fill-rule:evenodd;}.cls-1{fill:url(#Gradiente_sem_nome_5);}.cls-2{fill:url(#Gradiente_sem_nome_2);}.cls-3{fill:url(#Gradiente_sem_nome_3);}.cls-4{fill:url(#Gradiente_sem_nome_4);}.cls-5{opacity:0.2;}.cls-5,.cls-6,.cls-7{isolation:isolate;}.cls-6{opacity:0.12;}.cls-7{fill:#fff;opacity:0.25;}.cls-8{fill:#808285;}</style><linearGradient id="Gradiente_sem_nome_5" x1="2822.63" y1="-1380.56" x2="2814.09" y2="-1376.16" gradientTransform="translate(-10072.44 9583.84) scale(3.58 6.93)" gradientUnits="userSpaceOnUse"><stop offset="0" stop-color="#00a0ff"/><stop offset="0.01" stop-color="#00a1ff"/><stop offset="0.26" stop-color="#00beff"/><stop offset="0.51" stop-color="#00d2ff"/><stop offset="0.76" stop-color="#00dfff"/><stop offset="1" stop-color="#00e3ff"/></linearGradient><linearGradient id="Gradiente_sem_nome_2" x1="2758.27" y1="-1412.22" x2="2742.61" y2="-1412.22" gradientTransform="translate(-7706.14 3380.78) scale(2.81 2.37)" gradientUnits="userSpaceOnUse"><stop offset="0" stop-color="#ffe000"/><stop offset="0.41" stop-color="#ffbd00"/><stop offset="0.78" stop-color="orange"/><stop offset="1" stop-color="#ff9c00"/></linearGradient><linearGradient id="Gradiente_sem_nome_3" x1="2882.25" y1="-1393.94" x2="2873.28" y2="-1382.31" gradientTransform="translate(-13273.11 5002.27) scale(4.61 3.56)" gradientUnits="userSpaceOnUse"><stop offset="0" stop-color="#ff3a44"/><stop offset="1" stop-color="#c31162"/></linearGradient><linearGradient id="Gradiente_sem_nome_4" x1="2875.34" y1="-1404.28" x2="2879.34" y2="-1399.08" gradientTransform="translate(-13273.11 4996.2) scale(4.61 3.56)" gradientUnits="userSpaceOnUse"><stop offset="0" stop-color="#32a071"/><stop offset="0.07" stop-color="#2da771"/><stop offset="0.48" stop-color="#15cf74"/><stop offset="0.8" stop-color="#06e775"/><stop offset="1" stop-color="#00f076"/></linearGradient></defs><path class="cls-1" d="M.83,17.32A3.69,3.69,0,0,0,0,19.89V60.1a3.51,3.51,0,0,0,.85,2.55l.14.12L23.52,40.24v-.51L1,17.2Z"/><path class="cls-2" d="M31,47.78,23.5,40.26v-.53L31,32.21l.16.11,8.9,5c2.54,1.43,2.54,3.8,0,5.25l-8.9,5.06-.16.1Z"/><path class="cls-3" d="M31.18,47.68,23.5,40,.83,62.67c.83.89,2.22,1,3.78.12Z"/><path class="cls-4" d="M31.18,32.32,4.61,17.22c-1.56-.89-2.95-.77-3.78.12L23.5,40Z"/><path class="cls-5" d="M31,47.51l-26.39,15c-1.48.85-2.79.79-3.64,0l-.14.14.14.12c.85.77,2.16.83,3.64,0L31.2,47.68Z"/><path class="cls-6" d="M40.07,42.36,31,47.51l.16.17,8.89-5.06A3.16,3.16,0,0,0,42,40a3.27,3.27,0,0,1-1.88,2.36Z"/><path class="cls-7" d="M4.61,17.49,40.07,37.63A3.33,3.33,0,0,1,42,40a3.18,3.18,0,0,0-1.9-2.63L4.61,17.22C2.06,15.77,0,17,0,19.89v.26C0,17.24,2.06,16.05,4.61,17.49Z"/><path class="cls-8" d="M50.63,38.72A11.85,11.85,0,0,1,62.49,27a11.13,11.13,0,0,1,8,3.22L68.24,32.5a8.13,8.13,0,0,0-5.76-2.27,8.49,8.49,0,0,0,0,17,7.79,7.79,0,0,0,5.9-2.34,6.67,6.67,0,0,0,1.74-4H62.49V37.67H73.23a9.91,9.91,0,0,1,.17,2,10.54,10.54,0,0,1-2.76,7.47,10.7,10.7,0,0,1-8.16,3.28A11.84,11.84,0,0,1,50.63,38.73Zm31.46-3.36a7.52,7.52,0,1,0,7.55,7.52A7.42,7.42,0,0,0,82.09,35.36Zm0,12.09a4.36,4.36,0,0,1-4.25-4.57,4.26,4.26,0,1,1,8.49,0A4.36,4.36,0,0,1,82.09,47.45ZM98.57,35.36a7.52,7.52,0,1,0,7.55,7.52,7.41,7.41,0,0,0-7.55-7.52Zm0,12.09a4.36,4.36,0,0,1-4.25-4.57,4.26,4.26,0,1,1,4.25,4.57Zm20.22-11.63V37h-.11a5.18,5.18,0,0,0-4-1.68,7.53,7.53,0,0,0,0,15,5.12,5.12,0,0,0,4-1.71h.11v1.08c0,2.88-1.53,4.42-4,4.42a4.18,4.18,0,0,1-3.8-2.67l-2.88,1.19a7.18,7.18,0,0,0,6.67,4.45c3.88,0,7.16-2.28,7.16-7.84V35.81ZM115,47.45a4.33,4.33,0,0,1-4.19-4.54A4.35,4.35,0,0,1,115,38.32c2.26,0,4,1.94,4,4.59S117.26,47.45,115,47.45Zm9.21-19.62h3.31V50h-3.31Zm12.37,19.62a3.82,3.82,0,0,1-3.64-2.28L143,41l-.35-.85a7,7,0,0,0-6.44-4.79,7.16,7.16,0,0,0-7.1,7.52,7.37,7.37,0,0,0,7.47,7.53,7.5,7.5,0,0,0,6.28-3.34l-2.57-1.71a4.31,4.31,0,0,1-3.71,2.09Zm-.25-9.18a2.91,2.91,0,0,1,2.79,1.59l-6.73,2.8a4.13,4.13,0,0,1,3.94-4.39Zm21.19-10.44h-7.91V50h3.3V41.57h4.61a6.88,6.88,0,1,0,0-13.73Zm.08,10.66h-4.69V30.91h4.69a3.79,3.79,0,1,1,0,7.58ZM169.9,50V27.83h-3.3V50Zm14.82,0V41.43c0-3.92-2.93-6.11-6.72-6.11a6.19,6.19,0,0,0-5.88,3.38l2.93,1.22a3.12,3.12,0,0,1,3-1.62c1.71,0,3.45,1,3.47,2.85v.23a7.28,7.28,0,0,0-3.44-.86c-3.16,0-6.37,1.74-6.37,5,0,3,2.59,4.87,5.49,4.87a4.65,4.65,0,0,0,4.21-2.16h.11v1.71h3.19Zm-7.11-2.47c-1.08,0-2.59-.54-2.59-1.87,0-1.71,1.88-2.37,3.5-2.37a5.89,5.89,0,0,1,3,.74,4,4,0,0,1-3.93,3.5ZM196.33,35.8l-3.78,9.59h-.12l-3.92-9.59H185l5.89,13.41-3.36,7.45h3.44L200,35.8Z"/></svg>