<svg width="29" height="28" viewBox="0 0 29 28" fill="none" xmlns="http://www.w3.org/2000/svg">
<circle cx="14.04" cy="14" r="13.5" stroke="white"/>
<path fill-rule="evenodd" clip-rule="evenodd" d="M13.76 7.28C11.8588 7.28 11.6208 7.28793 10.8741 7.322C10.1289 7.35607 9.61974 7.4746 9.17454 7.64773C8.70788 7.8232 8.28461 8.09853 7.93461 8.45507C7.57865 8.80466 7.30314 9.22763 7.12728 9.69453C6.95508 10.1397 6.83608 10.6493 6.80201 11.3946C6.76841 12.1408 6.76001 12.3783 6.76001 14.28C6.76001 16.1817 6.76794 16.4192 6.80201 17.1659C6.83608 17.9111 6.95461 18.4203 7.12774 18.8655C7.30321 19.3321 7.57854 19.7554 7.93508 20.1054C8.28468 20.4614 8.70765 20.7369 9.17454 20.9127C9.61974 21.0854 10.1289 21.2039 10.8741 21.238C11.6208 21.2721 11.8588 21.28 13.76 21.28C15.6612 21.28 15.8992 21.2721 16.6459 21.238C17.3911 21.2039 17.9003 21.0854 18.3455 20.9123C18.8121 20.7368 19.2354 20.4615 19.5854 20.1049C19.9414 19.7553 20.2169 19.3324 20.3927 18.8655C20.5654 18.4203 20.6839 17.9111 20.718 17.1659C20.7521 16.4192 20.76 16.1812 20.76 14.28C20.76 12.3788 20.7521 12.1408 20.718 11.3941C20.6839 10.6489 20.5654 10.1397 20.3923 9.69453C20.2165 9.22743 19.941 8.80428 19.5849 8.4546C19.2353 8.09864 18.8124 7.82313 18.3455 7.64727C17.9003 7.47507 17.3907 7.35607 16.6454 7.322C15.8992 7.2884 15.6617 7.28 13.76 7.28ZM13.76 8.5414C15.629 8.5414 15.8507 8.5484 16.5889 8.582C17.2712 8.61327 17.6417 8.72667 17.8886 8.82327C18.2153 8.94973 18.4486 9.10187 18.6936 9.3464C18.9386 9.5914 19.0903 9.82473 19.2167 10.1514C19.3129 10.3983 19.4267 10.7688 19.458 11.4511C19.4916 12.1893 19.4986 12.411 19.4986 14.28C19.4986 16.149 19.4916 16.3707 19.458 17.1089C19.4267 17.7912 19.3133 18.1617 19.2167 18.4086C19.1047 18.7127 18.926 18.9877 18.6936 19.2136C18.4678 19.446 18.1927 19.6248 17.8886 19.7367C17.6417 19.8329 17.2712 19.9467 16.5889 19.978C15.8507 20.0116 15.6295 20.0186 13.76 20.0186C11.8905 20.0186 11.6693 20.0116 10.9311 19.978C10.2488 19.9467 9.87828 19.8333 9.63141 19.7367C9.32736 19.6247 9.05228 19.4459 8.82641 19.2136C8.59409 18.9877 8.41534 18.7126 8.30328 18.4086C8.20714 18.1617 8.09328 17.7912 8.06201 17.1089C8.02841 16.3707 8.02141 16.149 8.02141 14.28C8.02141 12.411 8.02841 12.1893 8.06201 11.4511C8.09328 10.7688 8.20668 10.3983 8.30328 10.1514C8.42974 9.82473 8.58188 9.5914 8.82641 9.3464C9.05225 9.11402 9.32733 8.93525 9.63141 8.82327C9.87828 8.72713 10.2488 8.61327 10.9311 8.582C11.6693 8.5484 11.891 8.5414 13.76 8.5414Z" fill="white"/>
<path fill-rule="evenodd" clip-rule="evenodd" d="M13.7599 16.6155C13.4531 16.6155 13.1494 16.5551 12.866 16.4377C12.5827 16.3204 12.3252 16.1483 12.1083 15.9314C11.8914 15.7145 11.7194 15.4571 11.602 15.1737C11.4846 14.8903 11.4242 14.5866 11.4242 14.2799C11.4242 13.9731 11.4846 13.6694 11.602 13.386C11.7194 13.1027 11.8914 12.8452 12.1083 12.6283C12.3252 12.4114 12.5827 12.2394 12.866 12.122C13.1494 12.0046 13.4531 11.9442 13.7599 11.9442C14.3793 11.9442 14.9734 12.1903 15.4114 12.6283C15.8495 13.0663 16.0955 13.6604 16.0955 14.2799C16.0955 14.8993 15.8495 15.4934 15.4114 15.9314C14.9734 16.3694 14.3793 16.6155 13.7599 16.6155ZM13.7599 10.6819C12.8056 10.6819 11.8905 11.0609 11.2157 11.7357C10.5409 12.4104 10.1619 13.3256 10.1619 14.2799C10.1619 15.2341 10.5409 16.1493 11.2157 16.824C11.8905 17.4988 12.8056 17.8779 13.7599 17.8779C14.7141 17.8779 15.6293 17.4988 16.304 16.824C16.9788 16.1493 17.3579 15.2341 17.3579 14.2799C17.3579 13.3256 16.9788 12.4104 16.304 11.7357C15.6293 11.0609 14.7141 10.6819 13.7599 10.6819ZM18.4046 10.6165C18.4046 10.8421 18.315 11.0584 18.1555 11.2179C17.996 11.3774 17.7797 11.467 17.5541 11.467C17.3285 11.467 17.1122 11.3774 16.9527 11.2179C16.7932 11.0584 16.7036 10.8421 16.7036 10.6165C16.7036 10.391 16.7932 10.1746 16.9527 10.0151C17.1122 9.85563 17.3285 9.76602 17.5541 9.76602C17.7797 9.76602 17.996 9.85563 18.1555 10.0151C18.315 10.1746 18.4046 10.391 18.4046 10.6165Z" fill="white"/>
<circle cx="7.60008" cy="8.12001" r="2.52" fill="#FF4F26"/>
</svg>
