<svg width="200" height="200" viewBox="0 0 200 200" fill="none" xmlns="http://www.w3.org/2000/svg">
<rect width="200" height="200" rx="25" fill="#E1E1FF"/>
<path d="M47.9195 92.35C46.4961 92.35 45.2011 92.105 44.0345 91.615C42.8911 91.1017 41.8995 90.4133 41.0595 89.55C40.2195 88.6633 39.5661 87.66 39.0995 86.54C38.6561 85.3967 38.4345 84.1833 38.4345 82.9C38.4345 81.1733 38.8311 79.5983 39.6245 78.175C40.4178 76.7283 41.5261 75.5733 42.9495 74.71C44.3728 73.8233 46.0411 73.38 47.9545 73.38C49.8678 73.38 51.5128 73.8233 52.8895 74.71C54.2895 75.5733 55.3745 76.7167 56.1445 78.14C56.9145 79.5633 57.2995 81.0917 57.2995 82.725C57.2995 83.005 57.2878 83.2733 57.2645 83.53C57.2411 83.7633 57.2178 83.9617 57.1945 84.125H42.5295C42.5995 85.1983 42.8911 86.1433 43.4045 86.96C43.9411 87.7533 44.6178 88.3833 45.4345 88.85C46.2511 89.2933 47.1261 89.515 48.0595 89.515C49.0861 89.515 50.0545 89.2583 50.9645 88.745C51.8978 88.2317 52.5278 87.555 52.8545 86.715L56.1445 87.66C55.7478 88.5467 55.1411 89.3517 54.3245 90.075C53.5311 90.775 52.5861 91.335 51.4895 91.755C50.3928 92.1517 49.2028 92.35 47.9195 92.35ZM42.4245 81.57H53.4845C53.4145 80.52 53.1111 79.5983 52.5745 78.805C52.0611 77.9883 51.3961 77.3583 50.5795 76.915C49.7861 76.4483 48.8995 76.215 47.9195 76.215C46.9628 76.215 46.0761 76.4483 45.2595 76.915C44.4661 77.3583 43.8128 77.9883 43.2995 78.805C42.7861 79.5983 42.4945 80.52 42.4245 81.57ZM97.0873 92H93.2373V81.745C93.2373 80.0417 92.9573 78.7933 92.3973 78C91.8373 77.2067 91.0207 76.81 89.9473 76.81C88.874 76.81 87.8707 77.2183 86.9373 78.035C86.0273 78.8283 85.3857 79.8667 85.0123 81.15V92H81.1623V81.745C81.1623 80.0417 80.8823 78.7933 80.3223 78C79.7623 77.2067 78.9573 76.81 77.9073 76.81C76.834 76.81 75.8307 77.2067 74.8973 78C73.9873 78.7933 73.334 79.8317 72.9373 81.115V92H69.0873V73.695H72.5873V77.37C73.3107 76.0867 74.2557 75.1067 75.4223 74.43C76.6123 73.73 77.9657 73.38 79.4823 73.38C80.999 73.38 82.189 73.7767 83.0523 74.57C83.939 75.3633 84.4873 76.355 84.6973 77.545C85.4907 76.1917 86.459 75.165 87.6023 74.465C88.769 73.7417 90.099 73.38 91.5923 73.38C92.6657 73.38 93.564 73.5783 94.2873 73.975C95.0107 74.3717 95.5707 74.92 95.9673 75.62C96.364 76.2967 96.644 77.09 96.8073 78C96.994 78.8867 97.0873 79.8317 97.0873 80.835V92ZM101.349 84.895V73.695H105.199V84.125C105.199 85.7583 105.491 86.995 106.074 87.835C106.681 88.6517 107.556 89.06 108.699 89.06C109.422 89.06 110.122 88.9083 110.799 88.605C111.499 88.3017 112.129 87.8583 112.689 87.275C113.272 86.6683 113.739 85.945 114.089 85.105V73.695H117.939V87.66C117.939 88.1033 118.021 88.4183 118.184 88.605C118.347 88.7917 118.616 88.8967 118.989 88.92V92C118.592 92.07 118.266 92.1167 118.009 92.14C117.752 92.1633 117.507 92.175 117.274 92.175C116.574 92.175 115.991 91.9883 115.524 91.615C115.057 91.2183 114.789 90.7167 114.719 90.11L114.649 88.29C113.832 89.62 112.771 90.635 111.464 91.335C110.157 92.0117 108.722 92.35 107.159 92.35C105.246 92.35 103.799 91.72 102.819 90.46C101.839 89.2 101.349 87.345 101.349 84.895ZM122.852 92V73.695H126.702V92H122.852ZM122.852 70.685V66.45H126.702V70.685H122.852ZM141.514 91.055C141.187 91.2183 140.779 91.3933 140.289 91.58C139.799 91.7667 139.239 91.93 138.609 92.07C138.002 92.21 137.372 92.28 136.719 92.28C135.925 92.28 135.19 92.14 134.514 91.86C133.837 91.58 133.289 91.1367 132.869 90.53C132.472 89.9 132.274 89.095 132.274 88.115V76.67H129.859V73.695H132.274V67.675H136.124V73.695H140.114V76.67H136.124V86.89C136.17 87.52 136.369 87.9867 136.719 88.29C137.092 88.5933 137.547 88.745 138.084 88.745C138.62 88.745 139.134 88.6517 139.624 88.465C140.114 88.2783 140.475 88.1267 140.709 88.01L141.514 91.055ZM152.166 92.35C150.719 92.35 149.424 92.105 148.281 91.615C147.138 91.1017 146.146 90.4017 145.306 89.515C144.489 88.6283 143.859 87.625 143.416 86.505C142.973 85.3617 142.751 84.1483 142.751 82.865C142.751 81.5817 142.973 80.3683 143.416 79.225C143.859 78.0817 144.489 77.0783 145.306 76.215C146.146 75.3283 147.138 74.64 148.281 74.15C149.448 73.6367 150.743 73.38 152.166 73.38C153.589 73.38 154.873 73.6367 156.016 74.15C157.183 74.64 158.174 75.3283 158.991 76.215C159.831 77.0783 160.473 78.0817 160.916 79.225C161.359 80.3683 161.581 81.5817 161.581 82.865C161.581 84.1483 161.359 85.3617 160.916 86.505C160.473 87.625 159.831 88.6283 158.991 89.515C158.174 90.4017 157.183 91.1017 156.016 91.615C154.873 92.105 153.589 92.35 152.166 92.35ZM146.706 82.9C146.706 84.0667 146.951 85.1167 147.441 86.05C147.931 86.9833 148.584 87.7183 149.401 88.255C150.218 88.7917 151.139 89.06 152.166 89.06C153.169 89.06 154.079 88.7917 154.896 88.255C155.736 87.695 156.401 86.9483 156.891 86.015C157.381 85.0583 157.626 84.0083 157.626 82.865C157.626 81.6983 157.381 80.6483 156.891 79.715C156.401 78.7817 155.736 78.0467 154.896 77.51C154.079 76.95 153.169 76.67 152.166 76.67C151.139 76.67 150.218 76.95 149.401 77.51C148.584 78.07 147.931 78.8167 147.441 79.75C146.951 80.66 146.706 81.71 146.706 82.9ZM86.4062 133H82.5562V122.745C82.5562 121.042 82.2762 119.793 81.7162 119C81.1562 118.207 80.3395 117.81 79.2662 117.81C78.1929 117.81 77.1895 118.218 76.2562 119.035C75.3462 119.828 74.7045 120.867 74.3312 122.15V133H70.4812V122.745C70.4812 121.042 70.2012 119.793 69.6412 119C69.0812 118.207 68.2762 117.81 67.2262 117.81C66.1529 117.81 65.1495 118.207 64.2162 119C63.3062 119.793 62.6529 120.832 62.2562 122.115V133H58.4062V114.695H61.9062V118.37C62.6295 117.087 63.5745 116.107 64.7412 115.43C65.9312 114.73 67.2845 114.38 68.8012 114.38C70.3179 114.38 71.5079 114.777 72.3712 115.57C73.2579 116.363 73.8062 117.355 74.0162 118.545C74.8095 117.192 75.7779 116.165 76.9212 115.465C78.0879 114.742 79.4179 114.38 80.9112 114.38C81.9845 114.38 82.8829 114.578 83.6062 114.975C84.3295 115.372 84.8895 115.92 85.2862 116.62C85.6829 117.297 85.9629 118.09 86.1262 119C86.3129 119.887 86.4062 120.832 86.4062 121.835V133ZM89.5127 127.645C89.5127 126.478 89.8394 125.463 90.4927 124.6C91.1694 123.713 92.091 123.037 93.2577 122.57C94.4244 122.08 95.7777 121.835 97.3177 121.835C98.1344 121.835 98.9627 121.893 99.8027 122.01C100.666 122.127 101.424 122.313 102.078 122.57V121.415C102.078 120.132 101.693 119.128 100.923 118.405C100.153 117.682 99.0444 117.32 97.5977 117.32C96.571 117.32 95.6027 117.507 94.6927 117.88C93.7827 118.23 92.8144 118.732 91.7877 119.385L90.4927 116.795C91.706 115.978 92.9194 115.372 94.1327 114.975C95.3694 114.578 96.6644 114.38 98.0177 114.38C100.468 114.38 102.393 115.033 103.793 116.34C105.216 117.623 105.928 119.455 105.928 121.835V128.66C105.928 129.103 105.998 129.418 106.138 129.605C106.301 129.792 106.569 129.897 106.943 129.92V133C106.593 133.07 106.278 133.117 105.998 133.14C105.718 133.163 105.484 133.175 105.298 133.175C104.481 133.175 103.863 132.977 103.443 132.58C103.023 132.183 102.778 131.717 102.708 131.18L102.603 130.13C101.809 131.157 100.794 131.95 99.5577 132.51C98.321 133.07 97.0727 133.35 95.8127 133.35C94.5994 133.35 93.5144 133.105 92.5577 132.615C91.601 132.102 90.8544 131.413 90.3177 130.55C89.781 129.687 89.5127 128.718 89.5127 127.645ZM101.168 128.765C101.448 128.462 101.669 128.158 101.833 127.855C101.996 127.552 102.078 127.283 102.078 127.05V124.95C101.424 124.693 100.736 124.507 100.013 124.39C99.2894 124.25 98.5777 124.18 97.8777 124.18C96.4777 124.18 95.3344 124.46 94.4477 125.02C93.5844 125.58 93.1527 126.35 93.1527 127.33C93.1527 127.867 93.2927 128.38 93.5727 128.87C93.876 129.36 94.296 129.757 94.8327 130.06C95.3927 130.363 96.081 130.515 96.8977 130.515C97.7377 130.515 98.5427 130.352 99.3127 130.025C100.083 129.698 100.701 129.278 101.168 128.765ZM110.599 133V114.695H114.449V133H110.599ZM110.599 111.685V107.45H114.449V111.685H110.599ZM125.585 133.35C124.045 133.35 122.587 133.105 121.21 132.615C119.833 132.102 118.655 131.343 117.675 130.34L119.11 127.75C120.16 128.683 121.21 129.36 122.26 129.78C123.333 130.2 124.395 130.41 125.445 130.41C126.518 130.41 127.393 130.212 128.07 129.815C128.747 129.395 129.085 128.788 129.085 127.995C129.085 127.412 128.91 126.98 128.56 126.7C128.21 126.42 127.697 126.175 127.02 125.965C126.367 125.755 125.573 125.522 124.64 125.265C123.333 124.868 122.237 124.46 121.35 124.04C120.463 123.597 119.798 123.06 119.355 122.43C118.912 121.8 118.69 120.995 118.69 120.015C118.69 118.825 118.993 117.81 119.6 116.97C120.207 116.13 121.047 115.488 122.12 115.045C123.217 114.602 124.477 114.38 125.9 114.38C127.23 114.38 128.455 114.59 129.575 115.01C130.718 115.407 131.722 116.037 132.585 116.9L130.94 119.455C130.123 118.708 129.283 118.16 128.42 117.81C127.58 117.46 126.67 117.285 125.69 117.285C125.13 117.285 124.593 117.355 124.08 117.495C123.567 117.612 123.135 117.845 122.785 118.195C122.458 118.522 122.295 118.988 122.295 119.595C122.295 120.085 122.435 120.482 122.715 120.785C122.995 121.088 123.415 121.345 123.975 121.555C124.535 121.765 125.223 121.998 126.04 122.255C127.463 122.675 128.677 123.095 129.68 123.515C130.683 123.912 131.453 124.437 131.99 125.09C132.55 125.72 132.83 126.595 132.83 127.715C132.83 129.488 132.165 130.877 130.835 131.88C129.528 132.86 127.778 133.35 125.585 133.35ZM137.003 124.145V107.905H140.853V124.145H137.003ZM137.003 133V128.205H140.853V133H137.003Z" fill="#1C208C"/>
</svg>
