<svg id="Camada_1" data-name="Camada 1" xmlns="http://www.w3.org/2000/svg" viewBox="0 0 200 80"><defs><style>.cls-1{fill:#a70b52;}.cls-2{fill:#fff;}.cls-3{fill:#808183;}</style></defs><path class="cls-1" d="M56,80A40,40,0,1,0,16,40,40,40,0,0,0,56,80Z"/><path class="cls-2" d="M65.75,54.08H57.47V22.77H54.4v34.4h3.07v0h8.28Z"/><path class="cls-2" d="M86.43,41.28H65.8V38.21H89.45c0,.59,0,1.19,0,1.79A33.49,33.49,0,1,1,56,6.51c.49,0,1,0,1.46,0V9.6c-.49,0-1,0-1.46,0A30.44,30.44,0,1,0,86.42,41.37Z"/><path class="cls-2" d="M43.52,32a4.71,4.71,0,1,0-4.7-4.71A4.71,4.71,0,0,0,43.52,32Z"/><path class="cls-3" d="M115.88,59.63h28.58V51H126.37V20.09H115.88ZM179,22.88c-3.27-2.54-7.49-3.83-12.53-3.83-6,0-11,1.84-14.45,5.31-3.62,3.62-5.54,9-5.54,15.45,0,6.92,2,12.77,5.71,16.45a15.4,15.4,0,0,0,11.16,4.41c9.68,0,11.91-5.8,11.91-5.8v4.76H184V37.3h-17.4v7h8s.08,8.8-8.18,8.8a7.5,7.5,0,0,1-5.41-2.2c-2.25-2.25-3.43-6-3.43-10.92,0-8.11,3.22-12.95,8.62-12.95a6.4,6.4,0,0,1,6.55,5.21h11.13c-.57-4.56-1.82-6.93-4.88-9.35Z"/></svg>