<svg width="29" height="28" viewBox="0 0 29 28" fill="none" xmlns="http://www.w3.org/2000/svg">
<circle cx="14.52" cy="14" r="13.5" stroke="white"/>
<path d="M20.6799 8.30941V20.2506C20.6799 20.5236 20.5715 20.7854 20.3784 20.9785C20.1854 21.1715 19.9235 21.28 19.6505 21.28H7.70934C7.43633 21.28 7.17449 21.1715 6.98144 20.9785C6.78839 20.7854 6.67993 20.5236 6.67993 20.2506V8.30941C6.67993 8.03639 6.78839 7.77456 6.98144 7.58151C7.17449 7.38845 7.43633 7.28 7.70934 7.28H19.6505C19.9235 7.28 20.1854 7.38845 20.3784 7.58151C20.5715 7.77456 20.6799 8.03639 20.6799 8.30941ZM10.7976 12.6329H8.73876V19.2212H10.7976V12.6329ZM10.9829 10.3682C10.984 10.2125 10.9544 10.0581 10.8958 9.91379C10.8372 9.76949 10.7507 9.63815 10.6414 9.52727C10.532 9.41638 10.4019 9.32812 10.2584 9.26753C10.115 9.20694 9.96096 9.17519 9.80523 9.17412H9.76817C9.45147 9.17412 9.14774 9.29992 8.9238 9.52387C8.69986 9.74781 8.57405 10.0515 8.57405 10.3682C8.57405 10.6849 8.69986 10.9887 8.9238 11.2126C9.14774 11.4365 9.45147 11.5624 9.76817 11.5624C9.92391 11.5662 10.0789 11.5393 10.2242 11.4832C10.3696 11.4271 10.5024 11.343 10.6153 11.2355C10.7281 11.128 10.8186 10.9994 10.8817 10.857C10.9447 10.7145 10.9791 10.561 10.9829 10.4053V10.3682ZM18.6211 15.2188C18.6211 13.2382 17.3611 12.4682 16.1093 12.4682C15.6995 12.4477 15.2914 12.535 14.9258 12.7214C14.5602 12.9078 14.2499 13.1868 14.0258 13.5306H13.9682V12.6329H12.0329V19.2212H14.0917V15.7171C14.0619 15.3582 14.175 15.002 14.4063 14.726C14.6376 14.45 14.9684 14.2764 15.327 14.2429H15.4052C16.0599 14.2429 16.5458 14.6547 16.5458 15.6924V19.2212H18.6046L18.6211 15.2188Z" fill="white"/>
<circle cx="20.3999" cy="7.00001" r="2.52" fill="#FF4F26"/>
</svg>
