<svg xmlns="http://www.w3.org/2000/svg" viewBox="0 0 728.76712 800"><defs><style>.a{fill:#a238ff;}.b{fill:none;}</style></defs><title>deezer_logo-freelogovectors.net</title><path d="M222.64982,663.53787h54.67389c33.85262,0,57.79047,22.52122,57.79047,54.53224,0,32.01131-23.93785,54.53263-57.79047,54.53263H222.64982ZM265.14291,743.141h9.91476c10.623,0,16.28916-7.08169,16.28916-25.07088,0-17.98821-5.66616-25.07049-16.28916-25.07049h-9.91476Zm166.28675,29.46175h-89.8018V663.53787h89.8018v29.46175h-47.451v12.60617h44.6179V729.6849h-44.6179V743.141h47.451Zm99.999,0H441.62787V663.53787H531.4287v29.46175h-47.45v12.60617h44.61785V729.6849H483.97873V743.141h47.45Zm325.92148,0c-6.11973-16.67712-14.67863-34.47135-26.192-54.41724,13.46505-3.94919,21.51765-12.43845,21.51765-25.46919,0-19.83-18.27176-29.17844-47.16746-29.17844H746.01883V772.60274h42.49208V727.48847q14.16192,23.85033,20.96357,45.11427Zm-68.83927-60.34V692.99962h14.7314c6.23217,0,9.77351,3.39968,9.77351,9.63184s-3.54134,9.63125-9.77351,9.63125Zm-52.69029,60.34h-89.8018V663.53787h89.8018v29.46175h-47.45v12.60617H732.9885V729.6849H688.37065V743.141h47.45ZM541.62891,692.99962h43.84494A207.059,207.059,0,0,0,540.77841,743.141v29.46175h96.45868V743.141H589.02515c11.0478-16.07331,26.48543-32.079,48.21194-50.14137V663.53787H541.62891Z" transform="translate(-175.61644)"/><path class="a" d="M734.729,115.08776c5.31782-30.82219,13.1217-50.20415,21.766-50.241h.01656c16.119.05547,29.18485,67.27185,29.18485,150.26033,0,82.98931-13.08445,150.25993-29.22,150.25993-6.6157,0-12.72011-11.4222-17.63426-30.56344-7.76661,70.06926-23.88356,118.23591-42.54249,118.23591-14.43613,0-27.39222-28.93435-36.09032-74.56528-5.93881,86.78236-20.88621,148.35431-38.35695,148.35431-10.96475,0-20.96076-24.399-28.361-64.12631-8.89889,82.0069-29.45807,139.4678-53.43272,139.4678s-44.57108-57.44229-53.43271-139.4678c-7.3464,39.7273-17.34239,64.12631-28.36139,64.12631-17.4699,0-32.3813-61.572-38.357-148.35431-8.6983,45.63093-21.618,74.56528-36.09093,74.56528-18.63925,0-34.77505-48.1501-42.54145-118.23591C336.396,354.00071,330.256,365.367,323.64088,365.367c-16.1358,0-29.22-67.27062-29.22-150.25993,0-82.98848,13.08421-150.26033,29.22-150.26033,8.66168,0,16.40987,19.43722,21.78232,50.241,8.607-53.14747,22.58652-87.6905,38.3934-87.6905,18.76738,0,35.0311,48.85268,42.72444,119.79008,7.52877-51.62954,18.95-84.54367,31.74168-84.54367,17.927,0,33.16625,64.73591,38.81318,155.03665,10.617-46.29808,25.9867-75.34318,43-75.34318,17.0112,0,32.3809,29.06353,42.97925,75.34318,5.66557-90.30074,20.88622-155.03665,38.81442-155.03665,12.77188,0,24.17544,32.91413,31.74129,84.54367,7.67552-70.9374,23.93944-119.79008,42.706-119.79008C712.08947,27.39726,726.12194,61.95892,734.729,115.08776ZM252.66728,200.32819c0-37.09778,7.4192-67.17933,16.57441-67.17933s16.57443,30.08155,16.57443,67.17933c0,37.09675-7.41927,67.18-16.57443,67.18S252.66728,237.42494,252.66728,200.32819Zm541.62161,0c0-37.09778,7.41882-67.17933,16.57441-67.17933,9.1535,0,16.5744,30.08155,16.5744,67.17933,0,37.09675-7.4209,67.18-16.5744,67.18C801.70771,267.50815,794.28889,237.42494,794.28889,200.32819Z" transform="translate(-175.61644)"/><rect class="b" width="728.76712" height="800"/></svg>