<svg id="Camada_1" data-name="Camada 1" xmlns="http://www.w3.org/2000/svg" viewBox="0 0 200 80"><defs><style>.cls-1{fill:#6c3c97;}</style></defs><path class="cls-1" d="M31.5,29.37A10.22,10.22,0,0,0,21.34,19.11h-5V39.54h5A10.2,10.2,0,0,0,31.5,29.37M54.42,70.09H35.92L21.24,49.71H16.3V70H0V9H23.35C36.81,9,47.8,18.11,47.8,29.37c0,6.87-4.21,13-10.62,16.76Z"/><path class="cls-1" d="M72.8,33c-4.3,0-8,5.85-8,13.09s3.66,13.1,8,13.1,8.06-5.86,8.06-13.1S77.21,33,72.8,33M97.89,46.13A25,25,0,1,1,72.8,21.22,25,25,0,0,1,97.89,46.13m38.25-23.9L117.37,41V22.17h-16.3V70h16.3V50.62L137,70h20.51L132.57,45.13,153.21,24.5V52.91c0,9.43,5.67,18.14,19.95,18.14a22.63,22.63,0,0,0,16-7.33L196.52,70H200V22.23H183.7v31c-1.83,3.2-4.39,5.21-8.34,5.21s-5.85-2.37-5.85-10V22.23Z"/></svg>