<svg id="Camada_1" data-name="Camada 1" xmlns="http://www.w3.org/2000/svg" viewBox="0 0 200 80"><defs><style>.cls-1{fill:#244999;}.cls-2{fill:#94a848;}.cls-3{fill:#ffdd12;}.cls-4{fill:#efc3bf;}.cls-5{fill:#d2d70c;}.cls-6{fill:#2baee5;}.cls-7{fill:#faef81;}.cls-8{fill:#aedef8;}.cls-9{fill:#f08825;}.cls-10{fill:#e84286;}.cls-11{fill:#1d1d1b;}</style></defs><polygon class="cls-1" points="103.71 35.02 103.71 46.85 94.36 40.24 103.71 35.02"/><polygon class="cls-2" points="85.06 35.02 85.06 46.85 94.41 40.24 85.06 35.02"/><polygon class="cls-3" points="94.41 23.06 82.32 29.88 94.41 29.84 94.41 23.06"/><polygon class="cls-4" points="94.4 23.06 106.48 29.88 94.4 29.84 94.4 23.06"/><polygon class="cls-5" points="94.41 40.24 82.35 48.69 94.41 48.69 94.41 40.24"/><polygon class="cls-6" points="94.4 40.24 106.47 48.69 94.4 48.69 94.4 40.24"/><polygon class="cls-7" points="82.35 48.69 94.4 48.69 94.4 56.94 82.35 48.69"/><polygon class="cls-8" points="106.43 48.69 94.4 48.69 94.4 56.94 106.43 48.69"/><polygon class="cls-9" points="82.35 29.84 94.43 29.84 94.43 36.56 82.35 29.84"/><polygon class="cls-10" points="106.49 29.84 94.41 29.84 94.41 36.56 106.49 29.84"/><polygon class="cls-11" points="106.47 48.73 106.47 29.84 94.41 36.56 82.35 29.84 82.35 48.72 85.06 50.56 85.06 35.02 94.41 40.19 103.71 35.01 103.71 50.56 106.47 48.73"/><path class="cls-11" d="M142,41.85A5.86,5.86,0,0,0,144.59,40a5.79,5.79,0,0,0,1.25-3.7,6.48,6.48,0,0,0-.48-2.53,5.48,5.48,0,0,0-1.44-2,6.63,6.63,0,0,0-2.3-1.26,10,10,0,0,0-3-.43h-7.81V50.72h2.73v-18h5.08a5.39,5.39,0,0,1,3.37.93,3.22,3.22,0,0,1,1.1,2.67,3.2,3.2,0,0,1-1.1,2.66,5.32,5.32,0,0,1-3.37.94h-3.35v2.6h4l3.84,8.25h3Z"/><polygon class="cls-11" points="148.17 30.05 148.17 32.7 154.39 32.7 154.39 50.73 157.13 50.73 157.13 32.7 163.38 32.7 163.38 30.05 148.17 30.05"/><path class="cls-11" d="M119.56,30h-2.31l-7.93,20.68h2.89l2.5-6.47,7.52,0,2.49,6.44h2.86Zm-4,11.76,2.79-7.33,2.85,7.34Z"/><path class="cls-11" d="M78.26,42.67a5.65,5.65,0,0,0-1.19-1.8,6.49,6.49,0,0,0-1.8-1.3A7.11,7.11,0,0,0,73,38.91l-3.71-.46a7.14,7.14,0,0,1-1.17-.27,3.13,3.13,0,0,1-.9-.5,2.25,2.25,0,0,1-.59-.79,2.76,2.76,0,0,1-.23-1.2,2.66,2.66,0,0,1,.3-1.32,4,4,0,0,1,.81-1A3.67,3.67,0,0,1,69,32.59a7.06,7.06,0,0,1,1.85-.25,6,6,0,0,1,2.25.4,3.85,3.85,0,0,1,2.13,2,4.84,4.84,0,0,1,.31,1.18l.08.55h2.74l-.06-.7a5.73,5.73,0,0,0-.53-2.07,6.93,6.93,0,0,0-1.12-1.66,6.41,6.41,0,0,0-2.53-1.72,8.51,8.51,0,0,0-3.27-.64,8.6,8.6,0,0,0-2.87.48,6.84,6.84,0,0,0-2.41,1.39,6.5,6.5,0,0,0-1.36,1.72,4.93,4.93,0,0,0-.56,2.41,5.64,5.64,0,0,0,.4,2.22,5,5,0,0,0,1.16,1.68,5.69,5.69,0,0,0,1.72,1.1,8.28,8.28,0,0,0,2.1.54l3.65.47a4.44,4.44,0,0,1,1.38.38,3.94,3.94,0,0,1,1,.72,2.84,2.84,0,0,1,.62,1,2.81,2.81,0,0,1,.21,1.08,3.17,3.17,0,0,1-.25,1.34,3.35,3.35,0,0,1-.7,1,4.24,4.24,0,0,1-1.73,1,8.16,8.16,0,0,1-2.28.32,6.48,6.48,0,0,1-2.16-.36,4.66,4.66,0,0,1-1.69-1,5.34,5.34,0,0,1-.83-1.19,4.49,4.49,0,0,1-.43-1.43l-.07-.56H63l.06.7A7.31,7.31,0,0,0,65,48.79a6.64,6.64,0,0,0,2.63,1.73,9.56,9.56,0,0,0,3.32.56,10.94,10.94,0,0,0,3.35-.5A7,7,0,0,0,76.94,49a6.09,6.09,0,0,0,1.24-1.73,5.5,5.5,0,0,0,.5-2.44,5.65,5.65,0,0,0-.42-2.16"/><polygon class="cls-11" points="190.18 50.8 192 50.8 200 29.95 197.91 29.95 191.11 47.83 184.16 29.95 168.93 29.95 168.93 31.86 175.47 31.86 175.47 50.8 177.45 50.8 177.45 31.86 182.84 31.86 190.18 50.8"/><polygon class="cls-11" points="103.71 35.01 103.71 50.56 106.47 48.73 106.47 29.84 94.41 36.56 94.41 40.19 103.71 35.01"/><path class="cls-11" d="M1.71,39.73A2.37,2.37,0,0,1,.08,37.29V37c0-1.67,1-2.59,2.84-2.59h.93c1.5,0,2.42.64,2.42,2.19a.62.62,0,0,1-.69.68.63.63,0,0,1-.68-.68c0-.61-.44-.88-1.05-.88H2.92c-1,0-1.46.39-1.46,1.28v.26a1.16,1.16,0,0,0,.81,1.14l2.66,1A2.42,2.42,0,0,1,6.64,41.9v.52a2.53,2.53,0,0,1-2.83,2.75H2.41C.92,45.17,0,44.53,0,43a.62.62,0,0,1,.69-.68.64.64,0,0,1,.68.68c0,.63.43.88,1,.88h1.4a1.29,1.29,0,0,0,1.48-1.43V41.9a1.14,1.14,0,0,0-.75-1.18Z"/><path class="cls-11" d="M11.52,37.27a2.2,2.2,0,0,1,2.38,2.29v4.77a.64.64,0,0,1-.69.69H10.47c-1.37,0-2.25-.64-2.25-2V41.86c0-1.37.88-2,2.25-2h2.09v-.28a.94.94,0,0,0-1-1.06H9.59a.63.63,0,1,1,0-1.25Zm1,6.49V41.11H10.47c-.61,0-.91.3-.91.78V43c0,.45.3.76.91.76Z"/><path class="cls-11" d="M23.23,40a1.26,1.26,0,0,0-1.42-1.43H21v5.93a.67.67,0,1,1-1.34,0V38.55H17.35v5.93a.62.62,0,0,1-.66.69.63.63,0,0,1-.68-.69V38a.63.63,0,0,1,.68-.69h5.12A2.46,2.46,0,0,1,24.56,40v4.5a.67.67,0,1,1-1.33,0Z"/><path class="cls-11" d="M28.65,45.17c-1.37,0-2.19-.56-2.19-1.81,0-.38.15-.7.67-.7s.62.32.65.7.33.6.87.6h1.2c.72,0,.94-.36.94-.81v-.52a.64.64,0,0,0-.55-.65l-2.34-.66a1.72,1.72,0,0,1-1.35-1.83v-.36c0-1.37.77-2,2.26-2h.84c1.37,0,2.19.55,2.19,1.8,0,.39-.15.7-.66.7s-.64-.31-.67-.7-.31-.59-.85-.59h-.85c-.73,0-.95.36-.95.8v.36a.66.66,0,0,0,.55.66l2.32.64a1.72,1.72,0,0,1,1.38,1.84v.52c0,1.38-.79,2-2.26,2Z"/><path class="cls-11" d="M35.23,42.31a1.26,1.26,0,0,0,1.42,1.43h1.79V37.8a.61.61,0,0,1,.67-.68.63.63,0,0,1,.67.68v6.53a.62.62,0,0,1-.67.68H36.65a2.46,2.46,0,0,1-2.76-2.7V37.8a.62.62,0,0,1,.67-.68.61.61,0,0,1,.67.68Z"/><path class="cls-11" d="M46.53,40a1.26,1.26,0,0,0-1.42-1.43H43.33v5.93a.62.62,0,0,1-.68.69.63.63,0,0,1-.67-.69V38a.62.62,0,0,1,.67-.69h2.46A2.47,2.47,0,0,1,47.87,40v4.5a.62.62,0,0,1-.67.69.61.61,0,0,1-.67-.69Z"/><path class="cls-11" d="M55.69,45.83a2.65,2.65,0,0,1-2.8,2.91H51.22a.59.59,0,0,1-.66-.64.61.61,0,0,1,.66-.64h1.67c1,0,1.46-.67,1.46-1.63V45h-1.8A2.45,2.45,0,0,1,49.8,42.3V40.19a2.64,2.64,0,0,1,2.79-2.92H55a.63.63,0,0,1,.68.68Zm-3.1-7.28c-1,0-1.44.69-1.44,1.64V42.3a1.24,1.24,0,0,0,1.4,1.43h1.8V38.55Z"/></svg>