<svg width="28" height="28" viewBox="0 0 28 28" fill="none" xmlns="http://www.w3.org/2000/svg">
<circle cx="14" cy="14" r="13.5" stroke="white"/>
<path d="M13.9836 7.28C10.0132 7.28 6.78204 10.3922 6.78064 14.217C6.7797 15.4401 7.11197 16.6339 7.74197 17.6853L6.71997 21.28L10.5387 20.3154C11.6009 20.871 12.7821 21.1609 13.9808 21.1601H13.9836C17.954 21.1601 21.1852 18.0474 21.1866 14.2226C21.1876 12.3699 20.439 10.626 19.0787 9.31513C17.7188 8.0038 15.9105 7.28047 13.9836 7.28ZM13.9836 19.9883H13.9813C12.907 19.9883 11.8533 19.7101 10.934 19.1847L10.7146 19.0596L8.44944 19.6317L9.05424 17.5037L8.9119 17.2858C8.31406 16.374 7.99581 15.3073 7.9963 14.217C7.9977 11.0376 10.6838 8.4518 13.986 8.4518C15.5848 8.45227 17.0879 9.05287 18.2186 10.1425C19.3494 11.2322 19.9714 12.6812 19.9705 14.2221C19.9691 17.4015 17.2834 19.9883 13.9832 19.9883H13.9836ZM17.2676 15.6693C17.0874 15.5829 16.2026 15.1634 16.0374 15.1051C15.8727 15.0477 15.7528 15.0178 15.6328 15.1914C15.5134 15.365 15.168 15.7556 15.0635 15.8709C14.958 15.9866 14.853 16.0006 14.6729 15.9143C14.4928 15.8275 13.9127 15.6445 13.2258 15.0537C12.6905 14.5945 12.3293 14.0271 12.2243 13.853C12.1193 13.6799 12.2131 13.5861 12.3032 13.4997C12.3839 13.4227 12.4833 13.2977 12.5729 13.1964C12.6625 13.0951 12.6924 13.0228 12.753 12.9071C12.8128 12.7918 12.7829 12.6901 12.7376 12.6037C12.6924 12.5165 12.333 11.6634 12.1823 11.3167C12.0367 10.9788 11.8883 11.0241 11.7777 11.0185C11.6727 11.0138 11.5532 11.0124 11.4324 11.0124C11.3134 11.0124 11.1178 11.0558 10.9526 11.2294C10.7879 11.403 10.3226 11.8221 10.3226 12.6751C10.3226 13.5287 10.9676 14.3528 11.0576 14.4685C11.1477 14.5838 12.327 16.3352 14.1325 17.0865C14.5618 17.2643 14.8969 17.3712 15.1587 17.4515C15.5899 17.5835 15.9824 17.5644 16.2922 17.5201C16.6376 17.4701 17.3572 17.101 17.5065 16.6964C17.6568 16.2918 17.6568 15.9446 17.612 15.8723C17.5681 15.7999 17.4477 15.7565 17.2676 15.6693Z" fill="white"/>
<circle cx="14.28" cy="7.56001" r="2.52" fill="#FF4F26"/>
</svg>
